<?xml version="1.0" encoding="iso-8859-1"?>
<!-- Generator: Adobe Illustrator 16.0.0, SVG Export Plug-In . SVG Version: 6.00 Build 0)  -->
<!DOCTYPE svg PUBLIC "-//W3C//DTD SVG 1.1//EN" "http://www.w3.org/Graphics/SVG/1.1/DTD/svg11.dtd">
<svg version="1.1" id="Capa_1" xmlns="http://www.w3.org/2000/svg" xmlns:xlink="http://www.w3.org/1999/xlink" x="0px" y="0px"
	 width="317.893px" height="317.892px" viewBox="0 0 317.893 317.892" style="enable-background:new 0 0 317.893 317.892;"
	 xml:space="preserve">
<g>
	<path d="M317.893,278.636V39.254c0-21.684-17.568-39.251-39.252-39.251H39.252C17.57,0.003,0,17.57,0,39.254v239.382
		c0,21.684,17.57,39.253,39.252,39.253h239.388C300.324,317.889,317.893,300.312,317.893,278.636z M226.68,208.07
		c-17.336,11.116-38.808,8.571-47.961-5.703c-9.152-14.271-2.509-34.853,14.836-45.977c6.34-4.06,13.208-6.272,19.833-6.789
		l-11.57-30.635l-74.355,28.066l20.542,54.437c0.237,0.604,0.395,1.25,0.517,1.892c4.917,13.726-2.032,30.941-17.364,40.771
		c-17.334,11.116-38.812,8.556-47.957-5.703c-9.163-14.278-2.511-34.853,14.829-45.969c6.326-4.071,13.203-6.288,19.837-6.793
		l-15.433-40.879c0-0.016-0.008-0.024-0.008-0.024l-12.097-32.038c-1.885-5-0.331-11.469,4.174-14.353l11.722-4.426l75.408-28.467
		l12.755-4.817c5.29-0.817,10.725,3.012,12.62,8.015l12.09,32.029c0,0.008,0.009,0.008,0.017,0.024l3.166,8.39l12.258,32.494
		l8.977,23.782c0.245,0.629,0.397,1.259,0.514,1.899C248.957,181.023,242.013,198.239,226.68,208.07z"/>
	<polygon points="189.619,86.656 115.253,114.72 118.588,123.529 119.281,125.376 193.646,97.302 192.945,95.464 	"/>
</g>
<g>
</g>
<g>
</g>
<g>
</g>
<g>
</g>
<g>
</g>
<g>
</g>
<g>
</g>
<g>
</g>
<g>
</g>
<g>
</g>
<g>
</g>
<g>
</g>
<g>
</g>
<g>
</g>
<g>
</g>
</svg>
